<svg xmlns="http://www.w3.org/2000/svg" width="145" height="93" viewBox="0 0 145 93" fill="none"><path d="M35.584 92.032C29.184 92.032 23.296 90.4533 17.92 87.296C12.544 84.0533 8.192 79.0186 4.864 72.192C1.62133 65.28 -4.29153e-06 56.5333 -4.29153e-06 45.952C-4.29153e-06 35.456 1.62133 26.7946 4.864 19.9679C8.192 13.056 12.544 8.02129 17.92 4.86395C23.296 1.62128 29.184 -5.34058e-05 35.584 -5.34058e-05C41.984 -5.34058e-05 47.872 1.62128 53.248 4.86395C58.624 8.02129 62.9333 13.056 66.176 19.9679C69.504 26.7946 71.168 35.456 71.168 45.952C71.168 56.5333 69.504 65.28 66.176 72.192C62.9333 79.0186 58.624 84.0533 53.248 87.296C47.872 90.4533 41.984 92.032 35.584 92.032ZM35.584 78.208C42.24 78.208 47.1893 75.2213 50.432 69.248C53.76 63.2746 55.424 55.5093 55.424 45.952C55.424 36.4799 53.76 28.7573 50.432 22.784C47.1893 16.8106 42.24 13.824 35.584 13.824C28.8427 13.824 23.808 16.8106 20.48 22.784C17.2373 28.7573 15.616 36.4799 15.616 45.952C15.616 55.5093 17.2373 63.2746 20.48 69.248C23.808 75.2213 28.8427 78.208 35.584 78.208ZM82.408 86.656C82.408 81.1093 83.1333 76.2026 84.584 71.936C86.0347 67.6693 88.5093 63.6586 92.008 59.904C95.5067 56.064 100.328 52.352 106.472 48.768L110.056 46.5919C114.408 44.1173 117.736 42.0693 120.04 40.448C122.429 38.7413 124.349 36.8213 125.8 34.688C127.336 32.4693 128.104 29.8666 128.104 26.88C128.189 22.4426 126.867 19.2 124.136 17.1519C121.405 15.0186 118.035 13.952 114.024 13.952C109.757 13.952 106.259 15.2319 103.528 17.7919C100.797 20.2666 99.432 24.1066 99.432 29.312V31.104H83.56V28.5439C83.56 20.0959 86.12 13.2266 91.24 7.93595C96.4453 2.64528 104.083 -5.34058e-05 114.152 -5.34058e-05C123.795 -5.34058e-05 131.261 2.38928 136.552 7.16795C141.843 11.8613 144.488 18.0906 144.488 25.8559C144.488 31.1466 143.293 35.6693 140.904 39.424C138.6 43.0933 135.869 46.1226 132.712 48.512C129.555 50.816 125.288 53.504 119.912 56.576C113.171 60.5013 108.349 64 105.448 67.072C102.547 70.0586 101.096 73.216 101.096 76.544V77.184H144.36V90.752H82.408V86.656Z" fill="url(#paint0_linear_1_815)"></path><defs><linearGradient id="paint0_linear_1_815" x1="151.008" y1="56.752" x2="-4.992" y2="56.752" gradientUnits="userSpaceOnUse"><stop stop-color="#6DCAF7"></stop><stop offset="1" stop-color="#3C84F6"></stop></linearGradient></defs></svg>