<svg xmlns="http://www.w3.org/2000/svg" width="149" height="93" viewBox="0 0 149 93" fill="none"><path d="M35.584 92.032C29.184 92.032 23.296 90.4533 17.92 87.296C12.544 84.0533 8.192 79.0186 4.864 72.192C1.62133 65.28 -4.29153e-06 56.5333 -4.29153e-06 45.952C-4.29153e-06 35.456 1.62133 26.7946 4.864 19.9679C8.192 13.056 12.544 8.02129 17.92 4.86395C23.296 1.62128 29.184 -5.34058e-05 35.584 -5.34058e-05C41.984 -5.34058e-05 47.872 1.62128 53.248 4.86395C58.624 8.02129 62.9333 13.056 66.176 19.9679C69.504 26.7946 71.168 35.456 71.168 45.952C71.168 56.5333 69.504 65.28 66.176 72.192C62.9333 79.0186 58.624 84.0533 53.248 87.296C47.872 90.4533 41.984 92.032 35.584 92.032ZM35.584 78.208C42.24 78.208 47.1893 75.2213 50.432 69.248C53.76 63.2746 55.424 55.5093 55.424 45.952C55.424 36.4799 53.76 28.7573 50.432 22.784C47.1893 16.8106 42.24 13.824 35.584 13.824C28.8427 13.824 23.808 16.8106 20.48 22.784C17.2373 28.7573 15.616 36.4799 15.616 45.952C15.616 55.5093 17.2373 63.2746 20.48 69.248C23.808 75.2213 28.8427 78.208 35.584 78.208ZM114.152 92.032C103.315 92.032 95.1653 89.2586 89.704 83.712C84.2427 78.08 81.5547 70.4426 81.64 60.8H97C97.0853 66.6026 98.7493 70.9546 101.992 73.856C105.32 76.672 109.587 78.08 114.792 78.08C119.571 78.08 123.624 76.8853 126.952 74.496C130.365 72.0213 132.072 68.48 132.072 63.872C132.072 59.6053 130.493 56.2346 127.336 53.76C124.264 51.2 119.613 49.92 113.384 49.92H108.52V37.888H112.616C118.76 37.888 122.984 36.736 125.288 34.4319C127.592 32.0426 128.744 29.1839 128.744 25.8559C128.744 22.0159 127.421 19.1146 124.776 17.1519C122.216 15.1039 118.931 14.0799 114.92 14.0799C110.568 14.0799 106.984 15.3599 104.168 17.92C101.352 20.3946 99.9013 24.4053 99.816 29.952H84.584C84.584 20.3946 87.2293 13.0133 92.52 7.80795C97.8107 2.60262 105.363 -5.34058e-05 115.176 -5.34058e-05C121.149 -5.34058e-05 126.355 0.98128 130.792 2.94395C135.229 4.90661 138.643 7.63728 141.032 11.1359C143.421 14.6346 144.616 18.6453 144.616 23.168C144.616 28.4586 143.165 32.8106 140.264 36.2239C137.448 39.5519 133.992 41.7706 129.896 42.88C132.627 43.2213 135.443 44.2026 138.344 45.824C141.245 47.4453 143.677 49.8773 145.64 53.12C147.688 56.2773 148.712 60.2026 148.712 64.896C148.712 70.1013 147.304 74.7946 144.488 78.976C141.672 83.072 137.619 86.272 132.328 88.576C127.123 90.88 121.064 92.032 114.152 92.032Z" fill="url(#paint0_linear_1_846)"></path><defs><linearGradient id="paint0_linear_1_846" x1="153.008" y1="56.752" x2="-4.992" y2="56.752" gradientUnits="userSpaceOnUse"><stop stop-color="#6DCAF7"></stop><stop offset="1" stop-color="#3C84F6"></stop></linearGradient></defs></svg>