<svg xmlns="http://www.w3.org/2000/svg" width="148" height="93" viewBox="0 0 148 93" fill="none"><path d="M35.584 92.032C29.184 92.032 23.296 90.4533 17.92 87.296C12.544 84.0533 8.192 79.0186 4.864 72.192C1.62133 65.28 -4.29153e-06 56.5333 -4.29153e-06 45.952C-4.29153e-06 35.456 1.62133 26.7946 4.864 19.9679C8.192 13.056 12.544 8.02129 17.92 4.86395C23.296 1.62128 29.184 -5.34058e-05 35.584 -5.34058e-05C41.984 -5.34058e-05 47.872 1.62128 53.248 4.86395C58.624 8.02129 62.9333 13.056 66.176 19.9679C69.504 26.7946 71.168 35.456 71.168 45.952C71.168 56.5333 69.504 65.28 66.176 72.192C62.9333 79.0186 58.624 84.0533 53.248 87.296C47.872 90.4533 41.984 92.032 35.584 92.032ZM35.584 78.208C42.24 78.208 47.1893 75.2213 50.432 69.248C53.76 63.2746 55.424 55.5093 55.424 45.952C55.424 36.4799 53.76 28.7573 50.432 22.784C47.1893 16.8106 42.24 13.824 35.584 13.824C28.8427 13.824 23.808 16.8106 20.48 22.784C17.2373 28.7573 15.616 36.4799 15.616 45.952C15.616 55.5093 17.2373 63.2746 20.48 69.248C23.808 75.2213 28.8427 78.208 35.584 78.208ZM121.192 68.992H81.64V55.808L121.192 1.15195H137.576V55.808H147.816V68.992H137.576V90.752H121.192V68.992ZM121.192 55.808V20.992L95.976 55.808H121.192Z" fill="url(#paint0_linear_1_855)"></path><defs><linearGradient id="paint0_linear_1_855" x1="153.008" y1="56.752" x2="-4.992" y2="56.752" gradientUnits="userSpaceOnUse"><stop stop-color="#6DCAF7"></stop><stop offset="1" stop-color="#3C84F6"></stop></linearGradient></defs></svg>